<?xml version="1.0" ?><!DOCTYPE svg  PUBLIC '-//W3C//DTD SVG 1.1//EN'  'http://www.w3.org/Graphics/SVG/1.1/DTD/svg11.dtd'><svg height="140px" id="Layer_1" style="enable-background:new 0 0 140 140;" version="1.1" viewBox="0 0 140 140" width="140px" xml:space="preserve" xmlns="http://www.w3.org/2000/svg" xmlns:xlink="http://www.w3.org/1999/xlink"><g><path d="M70,130c-33.084,0-60-26.916-60-60s26.916-60,60-60s60,26.916,60,60S103.084,130,70,130z" style="fill:#F2F2F2;"/><circle cx="70" cy="70" r="58.064" style="fill:#324D5B;"/><g><path d="M81.89,43.597c-0.535,0-0.968-0.434-0.968-0.969c0-0.534,0.433-0.968,0.968-0.968    c6.489,0,10.394-8.283,10.394-10.445c0-0.534,0.434-0.968,0.968-0.968c0.535,0,0.968,0.434,0.968,0.968    C94.218,34.199,89.71,43.597,81.89,43.597z" style="fill:#E29B2F;"/><path d="M58.629,43.597c-7.82,0-12.328-9.396-12.328-12.382c0-0.534,0.433-0.968,0.968-0.968    s0.968,0.434,0.968,0.968c0,2.162,3.904,10.445,10.394,10.445c0.535,0,0.968,0.434,0.968,0.968    C59.597,43.163,59.164,43.597,58.629,43.597z" style="fill:#E29B2F;"/><path d="M70.33,107.666c-17.687,0-32.074-10.907-32.074-24.315c0-7.774,4.903-15.062,13.163-19.633    c-0.749-2.082-1.129-4.219-1.129-6.359c0-10.743,8.989-19.482,20.04-19.482s20.042,8.739,20.042,19.482    c0,2.138-0.38,4.272-1.13,6.359c8.259,4.571,13.16,11.858,13.16,19.633C102.403,96.759,88.015,107.666,70.33,107.666z" style="fill:#8AE3AD;"/><path d="M69.635,37.875c12,0,20.39,8.739,20.39,19.481c0,2.139-0.206,4.273-0.956,6.36    c8.261,4.571,12.9,11.858,12.9,19.632c0,13.409-14.334,24.316-32.334,24.316V37.875L69.635,37.875z" style="fill:#69DB96;"/><rect height="14" style="fill:#FFFFFF;" width="33" x="53.635" y="78.667"/><path d="M81.871,57.356c0,6.187-5.169,11.205-11.541,11.205c-6.371,0-11.539-5.02-11.539-11.205    c0-6.187,5.168-11.205,11.539-11.205C76.702,46.151,81.871,51.171,81.871,57.356z" style="fill:#FFFFFF;"/><path d="M70.33,69.53c-6.896,0-12.508-5.461-12.508-12.174s5.61-12.174,12.508-12.174    c6.896,0,12.509,5.461,12.509,12.174S77.227,69.53,70.33,69.53z M70.33,47.119c-5.829,0-10.571,4.593-10.571,10.237    c0,5.646,4.742,10.237,10.571,10.237c5.83,0,10.572-4.593,10.572-10.237C80.903,51.712,76.16,47.119,70.33,47.119z" style="fill:#8E9AA6;"/><ellipse cx="70.33" cy="57.357" rx="3.846" ry="3.735" style="fill:#015B64;"/><path d="M88.635,78.635c0-0.534-0.434-0.968-0.968-0.968H53.603c-0.534,0-0.968,0.434-0.968,0.968v14.064    c0,0.534,0.434,0.968,0.968,0.968h34.064c0.534,0,0.968-0.434,0.968-0.968V78.635z M85.635,84.667h-6.953    c0.007,0-0.047-0.255-0.047-0.313v-4.517c0-0.058,0.054-0.172,0.047-0.172h6.953V84.667z M76.822,91.667h-5.903    c0.021,0-0.284,0-0.284,0v-4.893c0-0.115,0.306-1.107,0.284-1.107h5.903c-0.021,0-0.188,0.992-0.188,1.107v4.893    C76.635,91.667,76.803,91.667,76.822,91.667z M63.177,85.667h5.904c-0.021,0-0.446,0.992-0.446,1.107v4.893c0,0,0.426,0,0.446,0    h-5.904c0.021,0-0.542,0-0.542,0v-4.893C62.635,86.659,63.197,85.667,63.177,85.667z M69.061,84.667h-5.862    c0.008,0-0.563-0.255-0.563-0.313v-4.517c0-0.058,0.57-0.172,0.563-0.172h5.862c-0.008,0-0.426,0.114-0.426,0.172v4.517    C68.635,84.412,69.053,84.667,69.061,84.667z M76.803,84.667h-5.863c0.009,0-0.305-0.255-0.305-0.313v-4.517    c0-0.058,0.313-0.172,0.305-0.172h5.863c-0.008,0-0.168,0.114-0.168,0.172v4.517C76.635,84.412,76.795,84.667,76.803,84.667z     M61.318,79.667c-0.007,0-0.684,0.114-0.684,0.172v4.516c0,0.059,0.677,0.313,0.684,0.313h-6.684v-5L61.318,79.667L61.318,79.667z     M54.635,85.667h6.705c-0.021,0-0.705,0.992-0.705,1.107v4.893c0,0,0.684,0,0.705,0h-6.705V85.667z M78.66,91.667    c0.021,0-0.025,0-0.025,0v-4.893c0-0.115,0.048-1.107,0.025-1.107h6.975v6H78.66z" style="fill:#8E9AA6;"/></g></g></svg>